<svg width="515" height="196" viewBox="0 0 515 196" fill="none" xmlns="http://www.w3.org/2000/svg">
<path d="M53.6057 186.198L54.5579 186.412C54.1021 188.247 53.0727 189.165 51.4695 189.165C50.4156 189.165 49.5876 188.74 48.9854 187.889C48.3872 187.039 48.0881 185.993 48.0881 184.752C48.0881 183.47 48.4014 182.441 49.0281 181.664C49.6547 180.886 50.495 180.498 51.5488 180.498C53.1113 180.498 54.1143 181.391 54.5579 183.177L53.5752 183.373C53.2171 182.046 52.5396 181.383 51.5427 181.383C50.8062 181.383 50.2345 181.692 49.8276 182.311C49.4248 182.925 49.2234 183.79 49.2234 184.905C49.2234 185.926 49.4309 186.746 49.8459 187.364C50.261 187.979 50.8103 188.286 51.4939 188.286C52.5559 188.286 53.2598 187.59 53.6057 186.198ZM63.7266 189.165C62.6564 189.165 61.8223 188.75 61.2241 187.92C60.626 187.086 60.3269 186.064 60.3269 184.856C60.3269 183.594 60.6402 182.553 61.2668 181.731C61.8935 180.909 62.7236 180.498 63.7571 180.498C64.7865 180.498 65.6125 180.903 66.2351 181.712C66.8577 182.518 67.1689 183.535 67.1689 184.764C67.1689 185.944 66.8658 186.974 66.2595 187.853C65.6573 188.727 64.813 189.165 63.7266 189.165ZM63.751 188.316C64.4793 188.316 65.049 187.985 65.46 187.322C65.8709 186.658 66.0764 185.804 66.0764 184.758C66.0764 183.684 65.8628 182.848 65.4355 182.25C65.0124 181.651 64.4488 181.352 63.7449 181.352C63.0328 181.352 62.4672 181.676 62.0481 182.323C61.629 182.97 61.4194 183.816 61.4194 184.862C61.4194 185.883 61.631 186.715 62.0542 187.358C62.4774 187.997 63.043 188.316 63.751 188.316ZM79.8716 189H78.8584L74.5493 181.737L74.5615 182.286C74.5737 182.494 74.5798 182.669 74.5798 182.811V189H73.7375V180.669H75.0437L79.072 187.462L79.0598 186.882C79.0517 186.654 79.0476 186.453 79.0476 186.278V180.669H79.8716V189ZM86.0374 186.784L86.9773 186.571C87.3557 187.706 88.1756 188.274 89.437 188.274C90.0962 188.274 90.5926 188.135 90.9263 187.859C91.2599 187.578 91.4268 187.204 91.4268 186.736C91.4268 186.382 91.2986 186.097 91.0422 185.881C90.79 185.665 90.497 185.517 90.1633 185.436L88.4971 185.021C88.0658 184.911 87.7118 184.778 87.4351 184.624C87.1624 184.465 86.9305 184.223 86.7393 183.897C86.548 183.572 86.4524 183.2 86.4524 182.781C86.4524 182.085 86.7148 181.531 87.2397 181.12C87.7646 180.705 88.4381 180.498 89.26 180.498C90.7737 180.498 91.7686 181.183 92.2446 182.555L91.2986 182.835C91.1887 182.347 90.9303 181.979 90.5234 181.731C90.1165 181.478 89.6832 181.352 89.2234 181.352C88.7677 181.352 88.3608 181.472 88.0027 181.712C87.6487 181.952 87.4717 182.292 87.4717 182.732C87.4717 183.346 87.9233 183.761 88.8267 183.977L90.3831 184.349C91.8072 184.691 92.5193 185.458 92.5193 186.65C92.5193 187.37 92.2507 187.971 91.7136 188.451C91.1806 188.927 90.4278 189.165 89.4553 189.165C87.7301 189.165 86.5907 188.371 86.0374 186.784ZM103.818 180.669H104.685V186.107C104.685 187.197 104.416 187.981 103.879 188.457C103.346 188.929 102.646 189.165 101.78 189.165C100.815 189.165 100.101 188.921 99.6372 188.432C99.1733 187.944 98.9414 187.169 98.9414 186.107V180.669H99.9851V186.107C99.9851 186.754 100.06 187.21 100.211 187.474C100.361 187.739 100.589 187.934 100.895 188.06C101.2 188.186 101.519 188.249 101.853 188.249C102.496 188.249 102.984 188.08 103.318 187.743C103.651 187.405 103.818 186.86 103.818 186.107V180.669ZM116.57 188.084V189H111.65V180.669H112.718V188.084H116.57ZM124.469 189H123.431V181.584H121.045V180.669H126.861V181.584H124.469V189ZM134.071 189H133.027V180.669H134.071V189ZM147.286 189H146.273L141.964 181.737L141.976 182.286C141.988 182.494 141.994 182.669 141.994 182.811V189H141.152V180.669H142.458L146.487 187.462L146.474 186.882C146.466 186.654 146.462 186.453 146.462 186.278V180.669H147.286V189ZM160.538 184.801V189.11H159.897L159.61 188.066C159.098 188.799 158.335 189.165 157.322 189.165C156.223 189.165 155.368 188.752 154.758 187.926C154.148 187.1 153.843 186.097 153.843 184.917C153.843 183.655 154.166 182.604 154.813 181.761C155.46 180.919 156.339 180.498 157.45 180.498C158.984 180.498 159.985 181.303 160.453 182.915L159.464 183.153C159.321 182.534 159.055 182.085 158.664 181.804C158.274 181.523 157.846 181.383 157.383 181.383C156.561 181.383 155.954 181.714 155.564 182.378C155.173 183.041 154.978 183.873 154.978 184.874C154.978 185.952 155.195 186.797 155.631 187.407C156.07 188.013 156.666 188.316 157.419 188.316C158.005 188.316 158.493 188.123 158.884 187.737C159.279 187.346 159.476 186.809 159.476 186.125C159.476 185.999 159.472 185.849 159.464 185.674H157.401V184.801H160.538ZM180.975 188.084V189H175.586V180.669H180.859V181.584H176.629V184.233H179.986V185.082H176.629V188.084H180.975ZM193.568 189H192.555L188.246 181.737L188.258 182.286C188.27 182.494 188.276 182.669 188.276 182.811V189H187.434V180.669H188.74L192.768 187.462L192.756 186.882C192.748 186.654 192.744 186.453 192.744 186.278V180.669H193.568V189ZM206.82 184.801V189.11H206.179L205.892 188.066C205.379 188.799 204.616 189.165 203.603 189.165C202.505 189.165 201.65 188.752 201.04 187.926C200.429 187.1 200.124 186.097 200.124 184.917C200.124 183.655 200.448 182.604 201.095 181.761C201.742 180.919 202.621 180.498 203.731 180.498C205.265 180.498 206.266 181.303 206.734 182.915L205.746 183.153C205.603 182.534 205.337 182.085 204.946 181.804C204.555 181.523 204.128 181.383 203.664 181.383C202.842 181.383 202.236 181.714 201.845 182.378C201.455 183.041 201.26 183.873 201.26 184.874C201.26 185.952 201.477 186.797 201.913 187.407C202.352 188.013 202.948 188.316 203.701 188.316C204.287 188.316 204.775 188.123 205.166 187.737C205.56 187.346 205.758 186.809 205.758 186.125C205.758 185.999 205.754 185.849 205.746 185.674H203.683V184.801H206.82ZM214.786 189H213.742V180.669H214.786V189ZM228.001 189H226.988L222.679 181.737L222.691 182.286C222.704 182.494 222.71 182.669 222.71 182.811V189H221.867V180.669H223.174L227.202 187.462L227.19 186.882C227.182 186.654 227.177 186.453 227.177 186.278V180.669H228.001V189ZM240.472 188.084V189H235.083V180.669H240.356V181.584H236.126V184.233H239.483V185.082H236.126V188.084H240.472ZM252.32 188.084V189H246.931V180.669H252.204V181.584H247.975V184.233H251.332V185.082H247.975V188.084H252.32ZM264.773 189H263.68L262.142 185.393H259.756V189H258.779V180.669H262.063C262.954 180.669 263.613 180.913 264.04 181.401C264.472 181.885 264.687 182.416 264.687 182.994C264.687 183.438 264.567 183.863 264.327 184.27C264.087 184.677 263.69 184.968 263.137 185.143L264.773 189ZM259.756 184.544H261.935C262.508 184.544 262.936 184.394 263.216 184.093C263.501 183.788 263.644 183.415 263.644 182.976C263.644 182.536 263.493 182.195 263.192 181.95C262.895 181.706 262.518 181.584 262.063 181.584H259.756V184.544ZM272.489 189H271.445V180.669H272.489V189ZM285.704 189H284.691L280.382 181.737L280.394 182.286C280.406 182.494 280.412 182.669 280.412 182.811V189H279.57V180.669H280.876L284.905 187.462L284.892 186.882C284.884 186.654 284.88 186.453 284.88 186.278V180.669H285.704V189ZM298.956 184.801V189.11H298.315L298.028 188.066C297.516 188.799 296.753 189.165 295.74 189.165C294.641 189.165 293.786 188.752 293.176 187.926C292.566 187.1 292.26 186.097 292.26 184.917C292.26 183.655 292.584 182.604 293.231 181.761C293.878 180.919 294.757 180.498 295.868 180.498C297.402 180.498 298.403 181.303 298.871 182.915L297.882 183.153C297.739 182.534 297.473 182.085 297.082 181.804C296.692 181.523 296.264 181.383 295.801 181.383C294.979 181.383 294.372 181.714 293.982 182.378C293.591 183.041 293.396 183.873 293.396 184.874C293.396 185.952 293.613 186.797 294.049 187.407C294.488 188.013 295.084 188.316 295.837 188.316C296.423 188.316 296.911 188.123 297.302 187.737C297.697 187.346 297.894 186.809 297.894 186.125C297.894 185.999 297.89 185.849 297.882 185.674H295.819V184.801H298.956ZM313.088 186.784L314.028 186.571C314.406 187.706 315.226 188.274 316.488 188.274C317.147 188.274 317.643 188.135 317.977 187.859C318.311 187.578 318.478 187.204 318.478 186.736C318.478 186.382 318.349 186.097 318.093 185.881C317.841 185.665 317.548 185.517 317.214 185.436L315.548 185.021C315.117 184.911 314.763 184.778 314.486 184.624C314.213 184.465 313.981 184.223 313.79 183.897C313.599 183.572 313.503 183.2 313.503 182.781C313.503 182.085 313.766 181.531 314.291 181.12C314.815 180.705 315.489 180.498 316.311 180.498C317.824 180.498 318.819 181.183 319.295 182.555L318.349 182.835C318.24 182.347 317.981 181.979 317.574 181.731C317.167 181.478 316.734 181.352 316.274 181.352C315.818 181.352 315.412 181.472 315.053 181.712C314.699 181.952 314.522 182.292 314.522 182.732C314.522 183.346 314.974 183.761 315.877 183.977L317.434 184.349C318.858 184.691 319.57 185.458 319.57 186.65C319.57 187.37 319.302 187.971 318.764 188.451C318.231 188.927 317.479 189.165 316.506 189.165C314.781 189.165 313.642 188.371 313.088 186.784ZM331.51 188.084V189H326.12V180.669H331.394V181.584H327.164V184.233H330.521V185.082H327.164V188.084H331.51ZM343.962 189H342.87L341.332 185.393H338.945V189H337.969V180.669H341.252C342.143 180.669 342.802 180.913 343.23 181.401C343.661 181.885 343.877 182.416 343.877 182.994C343.877 183.438 343.757 183.863 343.517 184.27C343.277 184.677 342.88 184.968 342.326 185.143L343.962 189ZM338.945 184.544H341.124C341.698 184.544 342.125 184.394 342.406 184.093C342.691 183.788 342.833 183.415 342.833 182.976C342.833 182.536 342.682 182.195 342.381 181.95C342.084 181.706 341.708 181.584 341.252 181.584H338.945V184.544ZM356.109 180.669L353.302 189H352.295L349.487 180.669H350.573L352.899 187.541L355.2 180.669H356.109ZM363.246 189H362.202V180.669H363.246V189ZM375.32 186.198L376.272 186.412C375.816 188.247 374.787 189.165 373.183 189.165C372.129 189.165 371.301 188.74 370.699 187.889C370.101 187.039 369.802 185.993 369.802 184.752C369.802 183.47 370.115 182.441 370.742 181.664C371.369 180.886 372.209 180.498 373.263 180.498C374.825 180.498 375.828 181.391 376.272 183.177L375.289 183.373C374.931 182.046 374.253 181.383 373.257 181.383C372.52 181.383 371.948 181.692 371.542 182.311C371.139 182.925 370.937 183.79 370.937 184.905C370.937 185.926 371.145 186.746 371.56 187.364C371.975 187.979 372.524 188.286 373.208 188.286C374.27 188.286 374.974 187.59 375.32 186.198ZM387.955 188.084V189H382.566V180.669H387.839V181.584H383.609V184.233H386.966V185.082H383.609V188.084H387.955ZM393.498 186.784L394.438 186.571C394.817 187.706 395.637 188.274 396.898 188.274C397.557 188.274 398.054 188.135 398.387 187.859C398.721 187.578 398.888 187.204 398.888 186.736C398.888 186.382 398.76 186.097 398.503 185.881C398.251 185.665 397.958 185.517 397.624 185.436L395.958 185.021C395.527 184.911 395.173 184.778 394.896 184.624C394.623 184.465 394.391 184.223 394.2 183.897C394.009 183.572 393.913 183.2 393.913 182.781C393.913 182.085 394.176 181.531 394.701 181.12C395.226 180.705 395.899 180.498 396.721 180.498C398.235 180.498 399.229 181.183 399.706 182.555L398.76 182.835C398.65 182.347 398.391 181.979 397.984 181.731C397.577 181.478 397.144 181.352 396.684 181.352C396.229 181.352 395.822 181.472 395.464 181.712C395.11 181.952 394.933 182.292 394.933 182.732C394.933 183.346 395.384 183.761 396.288 183.977L397.844 184.349C399.268 184.691 399.98 185.458 399.98 186.65C399.98 187.37 399.712 187.971 399.175 188.451C398.642 188.927 397.889 189.165 396.916 189.165C395.191 189.165 394.052 188.371 393.498 186.784ZM416.7 191.081H416.059C414.863 189.511 414.265 187.771 414.265 185.863C414.265 184.04 414.863 182.309 416.059 180.669H416.7C415.671 182.203 415.156 183.938 415.156 185.875C415.156 187.722 415.671 189.458 416.7 191.081ZM428.249 188.084V189H423.33V180.669H424.398V188.084H428.249ZM436.148 189H435.111V181.584H432.724V180.669H438.541V181.584H436.148V189ZM444.707 189V180.669H447.502C448.678 180.669 449.594 181.069 450.249 181.871C450.904 182.673 451.231 183.653 451.231 184.813C451.231 185.989 450.912 186.982 450.273 187.792C449.634 188.597 448.825 189 447.844 189H444.707ZM445.75 188.115H447.441C448.336 188.115 449.016 187.806 449.48 187.187C449.944 186.569 450.176 185.753 450.176 184.74C450.176 183.918 449.954 183.179 449.51 182.524C449.071 181.869 448.381 181.542 447.441 181.542H445.75V188.115ZM457.336 180.669H457.971C459.171 182.239 459.771 183.979 459.771 185.887C459.771 187.71 459.171 189.441 457.971 191.081H457.336C458.366 189.547 458.88 187.812 458.88 185.875C458.88 184.028 458.366 182.292 457.336 180.669Z" fill="#F4F3F3"/>
<path d="M259.867 40.679H279.805V46.5432H275.114V67.0679C269.25 69.8045 263.151 71.1728 256.817 71.1728C247.747 71.1728 240.71 68.2798 235.706 62.4938C230.702 56.6296 228.2 48.5761 228.2 38.3333C228.2 28.1687 230.78 20.1543 235.941 14.2901C241.101 8.42592 248.021 5.49383 256.7 5.49383C262.721 5.49383 268.859 6.74485 275.114 9.24691V24.2593H268.663V13.821C265.223 12.57 261.157 11.9444 256.466 11.9444C249.741 11.9444 244.581 14.0946 240.984 18.3951C237.387 22.6173 235.589 29.107 235.589 37.8642C235.589 47.0123 237.466 53.7757 241.219 58.1543C244.972 62.5329 250.25 64.7222 257.052 64.7222C260.649 64.7222 264.363 64.1749 268.194 63.0802V46.5432H259.867V40.679ZM288.86 38.216C288.86 28.0514 291.088 20.0761 295.545 14.2901C300.08 8.42592 306.179 5.49383 313.841 5.49383C321.348 5.49383 327.173 8.30864 331.317 13.9383C335.539 19.5679 337.65 27.3868 337.65 37.3951C337.65 48.0288 335.383 56.3169 330.848 62.2593C326.391 68.2016 320.409 71.1728 312.903 71.1728C305.632 71.1728 299.807 68.2798 295.428 62.4938C291.049 56.6296 288.86 48.537 288.86 38.216ZM296.249 37.8642C296.249 46.6214 297.734 53.3066 300.706 57.9198C303.755 62.4547 307.938 64.7222 313.255 64.7222C318.572 64.7222 322.716 62.4547 325.687 57.9198C328.737 53.3066 330.261 46.5823 330.261 37.7469C330.261 29.2243 328.815 22.8128 325.922 18.5123C323.107 14.1337 318.963 11.9444 313.49 11.9444C307.938 11.9444 303.677 14.0556 300.706 18.2778C297.734 22.5 296.249 29.0288 296.249 37.8642ZM348.699 38.216C348.699 28.0514 350.927 20.0761 355.384 14.2901C359.919 8.42592 366.018 5.49383 373.68 5.49383C381.187 5.49383 387.012 8.30864 391.156 13.9383C395.378 19.5679 397.489 27.3868 397.489 37.3951C397.489 48.0288 395.222 56.3169 390.687 62.2593C386.23 68.2016 380.248 71.1728 372.742 71.1728C365.47 71.1728 359.645 68.2798 355.267 62.4938C350.888 56.6296 348.699 48.537 348.699 38.216ZM356.088 37.8642C356.088 46.6214 357.573 53.3066 360.545 57.9198C363.594 62.4547 367.777 64.7222 373.094 64.7222C378.411 64.7222 382.555 62.4547 385.526 57.9198C388.575 53.3066 390.1 46.5823 390.1 37.7469C390.1 29.2243 388.654 22.8128 385.761 18.5123C382.946 14.1337 378.802 11.9444 373.328 11.9444C367.777 11.9444 363.516 14.0556 360.545 18.2778C357.573 22.5 356.088 29.0288 356.088 37.8642ZM406.544 64.1358H413.581V12.5309H406.544V6.66666H427.538C437.702 6.66666 445.209 9.20782 450.056 14.2901C454.904 19.2942 457.328 26.7613 457.328 36.6914C457.328 47.6379 454.552 55.9259 449.001 61.5556C443.527 67.1852 435.669 70 425.427 70H406.544V64.1358ZM420.618 64.1358H426.248C433.832 64.1358 439.657 61.9856 443.723 57.6852C447.867 53.3848 449.939 46.6214 449.939 37.3951C449.939 28.7942 448.062 22.5 444.309 18.5123C440.556 14.5247 434.536 12.5309 426.248 12.5309H420.618V64.1358Z" fill="#F4F3F3"/>
<path d="M231.392 156.136H238.429V104.531H231.392V98.6667H252.503V104.531H245.466V126.815H277.132V104.531H270.095V98.6667H291.206V104.531H284.169V156.136H291.206V162H270.095V156.136H277.132V132.679H245.466V156.136H252.503V162H231.392V156.136ZM300.275 130.216C300.275 120.051 302.503 112.076 306.96 106.29C311.495 100.426 317.594 97.4938 325.257 97.4938C332.763 97.4938 338.588 100.309 342.732 105.938C346.954 111.568 349.065 119.387 349.065 129.395C349.065 140.029 346.798 148.317 342.263 154.259C337.806 160.202 331.824 163.173 324.318 163.173C317.047 163.173 311.222 160.28 306.843 154.494C302.464 148.63 300.275 140.537 300.275 130.216ZM307.664 129.864C307.664 138.621 309.15 145.307 312.121 149.92C315.17 154.455 319.353 156.722 324.67 156.722C329.987 156.722 334.131 154.455 337.102 149.92C340.152 145.307 341.676 138.582 341.676 129.747C341.676 121.224 340.23 114.813 337.337 110.512C334.522 106.134 330.378 103.944 324.905 103.944C319.353 103.944 315.092 106.056 312.121 110.278C309.15 114.5 307.664 121.029 307.664 129.864ZM372.194 136.198V156.136H380.404V162H358.12V156.136H365.157V104.531H358.12V98.6667H379.348C386.229 98.6667 391.311 100.191 394.595 103.241C397.879 106.212 399.521 110.551 399.521 116.259C399.521 122.749 397.645 127.714 393.892 131.154C390.217 134.516 384.822 136.198 377.707 136.198H372.194ZM378.058 130.333C382.593 130.333 386.073 129.317 388.497 127.284C390.92 125.173 392.132 121.772 392.132 117.08C392.132 112.311 391.038 109.027 388.848 107.228C386.659 105.43 383.258 104.531 378.645 104.531H372.194V130.333H378.058ZM452.389 156.136V147.926H458.605V162H416.383V156.136H423.42V104.531H416.383V98.6667H457.432V112.741H451.216V104.531H430.457V126.815H442.185V120.951H448.049V139.716H442.185V132.679H430.457V156.136H452.389Z" fill="#F4F3F3"/>
<g clip-path="url(#clip0_2165_3)">
<g filter="url(#filter0_f_2165_3)">
<circle cx="168" cy="115" r="83" fill="white" fill-opacity="0.4"/>
<circle cx="168" cy="115" r="82.5" stroke="black"/>
</g>
<path d="M81.271 149L117.72 135.542V115.355L81.271 128.813L68.9346 135.542V149H75.6635H81.271Z" fill="white"/>
<path d="M117.72 135.542V115.355H207.439V135.011L117.72 135.542Z" fill="#F4F3F3" fill-opacity="0.6"/>
<path d="M104.938 107.175L135.102 96.0918V79.4673L104.938 90.5503L94.7285 96.0918V107.175H100.336H104.938Z" fill="white"/>
<path d="M135.103 96.2897V79.4673H208V95.847L135.103 96.2897Z" fill="#F4F3F3" fill-opacity="0.6"/>
<path d="M126.221 72.0786L149.682 63.3705V50.3083L126.221 59.0164L118.28 63.3705V72.0786H122.766H126.221Z" fill="white"/>
<path d="M149.683 63.7663V50.3083H206.879V63.4121L149.683 63.7663Z" fill="#F4F3F3" fill-opacity="0.6"/>
<path d="M156.85 42.503L171.402 37.1018V29L156.85 34.4012L151.925 37.1018V42.503H154.707H156.85Z" fill="white"/>
<path d="M171.402 37.3473V29H206.879V37.1277L171.402 37.3473Z" fill="#F4F3F3" fill-opacity="0.6"/>
</g>
<rect x="48.5" y="1.5" width="159" height="159" stroke="white"/>
<defs>
<filter id="filter0_f_2165_3" x="45" y="-8" width="246" height="246" filterUnits="userSpaceOnUse" color-interpolation-filters="sRGB">
<feFlood flood-opacity="0" result="BackgroundImageFix"/>
<feBlend mode="normal" in="SourceGraphic" in2="BackgroundImageFix" result="shape"/>
<feGaussianBlur stdDeviation="20" result="effect1_foregroundBlur_2165_3"/>
</filter>
<clipPath id="clip0_2165_3">
<rect x="48" y="1" width="160" height="160" fill="white"/>
</clipPath>
</defs>
</svg>
